<svg id="Capa_1" enable-background="new 0 0 512 512" height="512" viewBox="0 0 512 512" width="512" xmlns="http://www.w3.org/2000/svg"><g><path d="m478.766 129.771c20.896 36.797 32.938 79.28 33.228 124.551.91 141.688-114.304 257.678-255.995 257.678-141.384 0-255.999-114.615-255.999-256 0-65.916 24.913-126.014 65.836-171.391 5.534-6.137 14.766-7.15 21.556-2.439 63.931 44.363 141.569 70.362 225.279 70.362 52.518 0 102.645-10.233 148.497-28.814 6.555-2.655 14.106-.097 17.598 6.053z" fill="#3342ae"/><path d="m65.516 84.965c46.864-52.159 114.843-84.965 190.484-84.965 95.574 0 178.915 52.374 222.889 129.987l-190.219 260.013z" fill="#5766ce"/><path d="m330 390h-170c-5.523 0-10-4.477-10-10v-150c0-5.523 4.477-10 10-10h170c5.523 0 10 4.477 10 10v150c0 5.523-4.477 10-10 10z" fill="#1ab975"/><path d="m330 390h-115c-5.523 0-10-4.477-10-10v-150c0-5.523 4.477-10 10-10h115c5.523 0 10 4.477 10 10v150c0 5.523-4.477 10-10 10z" fill="#1ed688"/><path d="m380 310v70c0 5.523-4.477 10-10 10h-120c-5.523 0-10-4.477-10-10v-70c0-5.523 4.477-10 10-10h120c5.523 0 10 4.477 10 10z" fill="#edd578"/><path d="m380 310v70c0 5.523-4.477 10-10 10h-70.029c-5.523 0-10-4.477-10-10v-70c0-5.523 4.477-10 10-10h70.029c5.523 0 10 4.477 10 10z" fill="#ffe89c"/><path d="m438.281 53.737-26.765 24.638c-1.375 1.266-2 3.151-1.654 4.988l6.747 35.748c.853 4.522-3.966 7.979-7.976 5.722l-31.704-17.842c-1.629-.917-3.615-.928-5.254-.031l-31.914 17.463c-4.037 2.209-8.814-1.306-7.907-5.817l7.171-35.665c.368-1.832-.234-3.725-1.594-5.007l-26.47-24.955c-3.348-3.157-1.482-8.786 3.089-9.318l36.136-4.201c1.856-.216 3.47-1.374 4.27-3.063l15.554-32.885c1.967-4.16 7.898-4.124 9.816.058l15.162 33.069c.779 1.699 2.379 2.876 4.233 3.114l36.083 4.63c4.563.586 6.363 6.238 2.977 9.354zm-149.116 58.773-12.311 11.332c-.632.582-.92 1.449-.76 2.294l3.103 16.442c.392 2.08-1.824 3.67-3.668 2.632l-14.582-8.206c-.749-.422-1.663-.427-2.417-.014l-14.678 8.032c-1.857 1.016-4.054-.601-3.637-2.676l3.299-16.404c.169-.843-.108-1.713-.733-2.303l-12.175-11.478c-1.54-1.452-.682-4.041 1.421-4.286l16.621-1.932c.854-.099 1.596-.632 1.964-1.409l7.154-15.126c.905-1.913 3.633-1.897 4.515.027l6.974 15.21c.358.781 1.094 1.323 1.947 1.432l16.596 2.13c2.096.27 2.924 2.869 1.367 4.303z" fill="#eac23f"/><path d="m438.281 53.325-26.765 24.638c-1.375 1.266-2 3.151-1.654 4.988l4.139 21.931c-31.91-10.075-57.574-34.215-69.72-65.146l5.905-.686c1.856-.216 3.47-1.374 4.27-3.063l15.554-32.888c1.967-4.16 7.898-4.124 9.816.058l15.162 33.069c.779 1.699 2.379 2.876 4.233 3.114l36.083 4.63c4.563.587 6.363 6.238 2.977 9.355z" fill="#e9cc5a"/><path d="m466.908 165.672c-1.405-1.989-3.689-3.172-6.125-3.172h-382.339l-40.639-114.675c-1.062-2.994-3.893-4.995-7.069-4.995h-23.236c-4.143 0-7.5 3.358-7.5 7.5s3.357 7.5 7.5 7.5h17.937l40.582 114.511c.036.11.074.22.116.328l76.402 215.587c-10.854 6.804-18.086 18.875-18.086 32.603 0 21.202 17.25 38.451 38.452 38.451h185.708c4.143 0 7.5-3.358 7.5-7.5s-3.357-7.5-7.5-7.5h-185.708c-12.932 0-23.452-10.52-23.452-23.451 0-12.225 9.403-22.295 21.357-23.358h222.008c3.177 0 6.008-2.001 7.069-4.995l77.967-220c.814-2.297.462-4.844-.944-6.834zm-35.345 64.328-12.404 35h-304.389l-12.404-35zm-33.668 95h-261.861l-15.948-45h293.757zm-20.377 57.5h-27.726c-.385-.061-.779-.093-1.181-.093h-185.708c-.899 0-1.791.032-2.675.093h-3.818l-15.06-42.5h251.23zm59.36-167.5h-339.827l-13.29-37.5h366.407z" fill="#b4d2d7"/><path d="m366.672 472.999c0 21.54-17.461 39.001-39.001 39.001s-39.001-17.461-39.001-39.001 17.461-39.001 39.001-39.001 39.001 17.461 39.001 39.001zm-177.671-39.001c-21.54 0-39.001 17.461-39.001 39.001s17.461 39.001 39.001 39.001 39.001-17.461 39.001-39.001-17.461-39.001-39.001-39.001z" fill="#e5554e"/><path d="m342.671 472.999c0 8.284-6.716 15-15 15s-15-6.716-15-15 6.716-15 15-15 15 6.716 15 15zm-153.67-15c-8.284 0-15 6.716-15 15s6.716 15 15 15 15-6.716 15-15-6.716-15-15-15z" fill="#e1ebf0"/><path d="m242.216 46.695c0 2.761-2.239 5-5 5h-8.75v8.75c0 2.761-2.239 5-5 5-2.761 0-5-2.239-5-5v-8.75h-8.75c-2.761 0-5-2.239-5-5s2.239-5 5-5h8.75v-8.75c0-2.761 2.239-5 5-5 2.761 0 5 2.239 5 5v8.75h8.75c2.762 0 5 2.239 5 5z" fill="#fff5f5"/><path d="m168.75 92.983c0 2.761-2.239 5-5 5h-27.5c-2.761 0-5-2.239-5-5s2.239-5 5-5h27.5c2.761 0 5 2.238 5 5z" fill="#a6aee5"/></g></svg>